<?xml version="1.0" encoding="iso-8859-1"?>
<!-- Generator: Adobe Illustrator 16.0.0, SVG Export Plug-In . SVG Version: 6.00 Build 0)  -->
<!DOCTYPE svg PUBLIC "-//W3C//DTD SVG 1.1//EN" "http://www.w3.org/Graphics/SVG/1.1/DTD/svg11.dtd">
<svg xmlns="http://www.w3.org/2000/svg" xmlns:xlink="http://www.w3.org/1999/xlink" version="1.1" id="Capa_1" x="0px" y="0px" width="512px" height="512px" viewBox="0 0 25 25" style="enable-background:new 0 0 25 25;" xml:space="preserve">
<g>
	<g>
		<circle cx="16.34" cy="13.476" r="0.526" fill="#006DF0"/>
		<path d="M24.067,7.5h-4.924v2.645c0,0.214-0.146,0.492-0.32,0.614l-2.156,1.49c-0.18,0.122-0.473,0.122-0.646,0l-2.156-1.49    c-0.176-0.122-0.322-0.4-0.322-0.614V6.735c0-0.216,0.125-0.268,0.277-0.115l0.732,0.734c0.152,0.153,0.457,0.277,0.67,0.277    h0.729c0.215,0,0.57,0,0.783,0h0.729c0.188,0,0.424-0.1,0.584-0.223c-0.318-0.148-0.543-0.472-0.543-0.85V0.94    c0-0.515-0.418-0.938-0.943-0.938H8.443c-0.525,0-0.944,0.425-0.944,0.938V6.56c0,0.046-0.021,0.084-0.025,0.128l1.778-0.303    c0.215-0.037,0.367,0.109,0.346,0.322L9.58,6.859C9.557,7.072,9.382,7.328,9.187,7.425L7.758,8.151    c-0.192,0.098-0.245,0.319-0.12,0.493l0.126,0.174c0.127,0.177,0.399,0.273,0.611,0.218l1.181-0.31    c0.21-0.057,0.557-0.087,0.772-0.071l2.82,0.212v1.481c0,0.214,0.142,0.492,0.322,0.614l2.547,1.762    c0.176,0.121,0.469,0.121,0.646,0l0.395-0.271c0.008,0.102,0.008,0.205-0.01,0.288l-1.061,5.497    c-0.043,0.211-0.25,0.387-0.467,0.387h-0.074c-0.215,0-0.416-0.176-0.451-0.389l-0.422-2.941    c-0.029-0.215-0.234-0.389-0.445-0.389h-0.393c-0.217,0-0.415,0.174-0.439,0.391l-0.354,2.939    c-0.026,0.213-0.223,0.389-0.439,0.389h-0.084c-0.216,0-0.409-0.178-0.43-0.391l-0.364-3.998    c-0.021-0.213-0.209-0.391-0.426-0.391h-0.783c-0.218,0-0.423,0.176-0.453,0.389l-0.589,4c-0.03,0.213-0.236,0.389-0.447,0.389    H8.781c-0.217,0-0.416-0.176-0.448-0.389l-0.866-6.36c-0.028-0.215-0.162-0.531-0.29-0.702L6.025,9.655    C5.891,9.483,5.826,9.171,5.868,8.961l0.326-1.463h-5.26C0.419,7.498,0,7.923,0,8.437v8.126c0,0.516,0.419,0.939,0.934,0.939h5.63    c0.516,0,0.935,0.418,0.935,0.939v5.619c0,0.514,0.419,0.938,0.944,0.938h8.116c0.525,0,0.943-0.424,0.943-0.938v-5.625    c0-0.516,0.418-0.936,0.936-0.936h5.629c0.516,0,0.934-0.424,0.934-0.938V8.437C25,7.924,24.581,7.5,24.067,7.5z" fill="#006DF0"/>
	</g>
</g>
<g>
</g>
<g>
</g>
<g>
</g>
<g>
</g>
<g>
</g>
<g>
</g>
<g>
</g>
<g>
</g>
<g>
</g>
<g>
</g>
<g>
</g>
<g>
</g>
<g>
</g>
<g>
</g>
<g>
</g>
</svg>
