<?xml version="1.0" encoding="UTF-8" standalone="no"?>
<!-- Generator: Adobe Illustrator 19.1.0, SVG Export Plug-In . SVG Version: 6.00 Build 0)  -->

<svg
   xmlns:dc="http://purl.org/dc/elements/1.1/"
   xmlns:cc="http://creativecommons.org/ns#"
   xmlns:rdf="http://www.w3.org/1999/02/22-rdf-syntax-ns#"
   xmlns:svg="http://www.w3.org/2000/svg"
   xmlns="http://www.w3.org/2000/svg"
   xmlns:sodipodi="http://sodipodi.sourceforge.net/DTD/sodipodi-0.dtd"
   xmlns:inkscape="http://www.inkscape.org/namespaces/inkscape"
   version="1.1"
   id="Layer_1"
   x="0px"
   y="0px"
   viewBox="0 0 118.8 32"
   style="enable-background:new 0 0 118.8 32;"
   xml:space="preserve"
   inkscape:version="0.91 r13725"
   sodipodi:docname="logo.svg"><metadata
     id="metadata33"><rdf:RDF><cc:Work
         rdf:about=""><dc:format>image/svg+xml</dc:format><dc:type
           rdf:resource="http://purl.org/dc/dcmitype/StillImage" /></cc:Work></rdf:RDF></metadata><defs
     id="defs31" /><sodipodi:namedview
     pagecolor="#ffffff"
     bordercolor="#666666"
     borderopacity="1"
     objecttolerance="10"
     gridtolerance="10"
     guidetolerance="10"
     inkscape:pageopacity="0"
     inkscape:pageshadow="2"
     inkscape:window-width="1600"
     inkscape:window-height="838"
     id="namedview29"
     showgrid="false"
     inkscape:zoom="7.1452785"
     inkscape:cx="63.918205"
     inkscape:cy="15.635201"
     inkscape:window-x="-8"
     inkscape:window-y="-8"
     inkscape:window-maximized="1"
     inkscape:current-layer="Layer_1" /><style
     type="text/css"
     id="style3">
	.st0{fill:#40A878;}
	.st1{fill:#61FFB6;}
	.st2{fill:#FFFFFF;}
</style><path
     inkscape:connector-curvature="0"
     id="path4316"
     d="m 0.0059566,-0.11581578 119.4075034,0 0,32.18884278 -119.4075034,0 z"
     style="fill:#a35bb4;fill-opacity:1;fill-rule:nonzero;stroke:none"
     inkscape:export-xdpi="61.415577"
     inkscape:export-ydpi="61.415577" /><g
     id="g4512"
     transform="matrix(0.2337885,0,0,0.2337885,131.4545,-190.76861)"
     inkscape:export-xdpi="61.415577"
     inkscape:export-ydpi="61.415577"><ellipse
       style="opacity:1;fill:#4e2e5d;fill-opacity:1;stroke:#4e2e5d;stroke-width:2;stroke-linecap:round;stroke-linejoin:round;stroke-miterlimit:4;stroke-dasharray:none;stroke-dashoffset:0;stroke-opacity:1"
       id="ellipse4331"
       cx="-473.60007"
       cy="932.7467"
       rx="54.642857"
       ry="4.2857141"
       inkscape:export-xdpi="238.67"
       inkscape:export-ydpi="238.67" /><path
       style="opacity:1;fill:#ffffff;fill-opacity:1;stroke:none;stroke-width:1;stroke-linecap:round;stroke-linejoin:round;stroke-miterlimit:4;stroke-dasharray:none;stroke-dashoffset:0;stroke-opacity:1"
       d="m -527.80828,901.43924 0,4.93939 c 0,4.6091 3.71138,8.31764 8.32047,8.31764 l 24.30738,0 0,9.62001 -9.09962,0 0,6.89013 60.31919,0 0,-6.89013 -9.23044,0 0,-9.62001 25.47897,0 c 4.60909,0 8.32047,-3.70854 8.32047,-8.31764 l 0,-4.93939 -108.41642,0 z"
       id="path4333"
       inkscape:connector-curvature="0"
       inkscape:export-xdpi="238.67"
       inkscape:export-ydpi="238.67" /><path
       style="opacity:1;fill:#ffffff;fill-opacity:1;stroke:none;stroke-width:1;stroke-linecap:round;stroke-linejoin:round;stroke-miterlimit:4;stroke-dasharray:none;stroke-dashoffset:0;stroke-opacity:1"
       d="m -526.49524,825.31702 c -5.31293,0 -9.59107,4.34824 -9.59107,9.75239 l 0,61.27508 124.97248,0 0,-61.27508 c 0,-5.40415 -4.27814,-9.75239 -9.59108,-9.75239 l -105.79033,0 z"
       id="path4335"
       inkscape:connector-curvature="0"
       inkscape:export-xdpi="238.67"
       inkscape:export-ydpi="238.67" /><path
       sodipodi:type="inkscape:offset"
       inkscape:radius="1.7857174"
       inkscape:original="M 219.13867 541.0957 C 216.84582 541.0957 215.08203 542.83038 215.08203 545.3125 L 215.08203 601.05273 L 328.98438 601.05273 L 328.98438 545.3125 C 328.98438 542.82903 327.22256 541.0957 324.92969 541.0957 L 219.13867 541.0957 z "
       style="opacity:1;fill:#e6e6e6;fill-opacity:1;stroke:none;stroke-width:1;stroke-linecap:round;stroke-linejoin:round;stroke-miterlimit:4;stroke-dasharray:none;stroke-dashoffset:0;stroke-opacity:1"
       id="path4337"
       d="m 219.13867,539.31055 c -3.19352,0 -5.8418,2.67388 -5.84179,6.00195 l 0,55.74023 a 1.7858959,1.7858959 0 0 0 1.78515,1.78516 l 113.90235,0 a 1.7858959,1.7858959 0 0 0 1.78515,-1.78516 l 0,-55.74023 c 0,-3.32802 -2.64701,-6.00195 -5.83984,-6.00195 l -105.79102,0 z"
       transform="translate(-745.63327,289.75653)"
       inkscape:export-xdpi="238.67"
       inkscape:export-ydpi="238.67" /><rect
       style="opacity:1;fill:#ffffff;fill-opacity:1;stroke:#ffffff;stroke-width:2;stroke-linecap:round;stroke-linejoin:round;stroke-miterlimit:4;stroke-dasharray:none;stroke-dashoffset:0;stroke-opacity:1"
       id="rect4339"
       width="32.232143"
       height="15.446428"
       x="-489.0824"
       y="854.63397"
       ry="7.7232141"
       inkscape:export-xdpi="238.67"
       inkscape:export-ydpi="238.67" /><g
       id="g4341"
       transform="translate(-880.21154,324.67019)"
       inkscape:export-xdpi="238.67"
       inkscape:export-ydpi="238.67"><g
         style="fill:#4e2e5d;fill-opacity:1;stroke:none"
         transform="matrix(0.41074837,0,0,0.41074837,381.89547,511.1875)"
         id="g4343"><g
           style="fill:#4e2e5d;fill-opacity:1;stroke:none"
           id="g4345"><path
             sodipodi:nodetypes="ccsccsccscccscccsccsccssssssssss"
             style="fill:#4e2e5d;fill-opacity:1;stroke:none"
             inkscape:connector-curvature="0"
             d="m 30,108.785 c 9,4.601 19.1,7 29.2,7.2 l 1.6,0 c 10.2,0 20.3,-2.2 29.5,-6.6 8.399,-4 16,-10 21.601,-17.5 6.399,-8.601 9.699,-18.9 9.699,-29.601 l 0,-20.3 0,-22.1 0,-7.7 c 0,-4.7 -4.699,-7.8 -9,-6.1 l -22.8,9.5 c -1.5,0.6 -3.2,0.7 -4.7,0.1 -7.4,-2.9 -15.6,-4.4 -24.3,-4.4 -8.7,0 -16.9,1.6 -24.3,4.4 -1.5,0.6 -3.2,0.5 -4.7,-0.1 L 9,6.385 c -4.3,-1.8 -9,1.4 -9,6.1 l 0,10.6 0,22 0,18.5 c 0,9.9 3.2,19.5 8.9,27.5 5.4,7.5 12.8,13.5 21.1,17.7 z M 83,52.9223 c 5.5,0 10,4.5 10,10 0,5.5 -4.5,10 -10,10 -5.5,0 -10,-4.5 -10,-10 0,-5.599 4.5,-10 10,-10 z m -44.4,0 c 5.5,0 10,4.5 10,10 0,5.5 -4.5,10 -10,10 -5.5,0 -10,-4.5 -10,-10 0,-5.599 4.5,-10 10,-10 z"
             id="path4347" /></g><g
           style="fill:#4e2e5d;fill-opacity:1;stroke:none"
           id="g4349" /><g
           style="fill:#4e2e5d;fill-opacity:1;stroke:none"
           id="g4351" /><g
           style="fill:#4e2e5d;fill-opacity:1;stroke:none"
           id="g4353" /><g
           style="fill:#4e2e5d;fill-opacity:1;stroke:none"
           id="g4355" /><g
           style="fill:#4e2e5d;fill-opacity:1;stroke:none"
           id="g4357" /><g
           style="fill:#4e2e5d;fill-opacity:1;stroke:none"
           id="g4359" /><g
           style="fill:#4e2e5d;fill-opacity:1;stroke:none"
           id="g4361" /><g
           style="fill:#4e2e5d;fill-opacity:1;stroke:none"
           id="g4363" /><g
           style="fill:#4e2e5d;fill-opacity:1;stroke:none"
           id="g4365" /><g
           style="fill:#4e2e5d;fill-opacity:1;stroke:none"
           id="g4367" /><g
           style="fill:#4e2e5d;fill-opacity:1;stroke:none"
           id="g4369" /><g
           style="fill:#4e2e5d;fill-opacity:1;stroke:none"
           id="g4371" /><g
           style="fill:#4e2e5d;fill-opacity:1;stroke:none"
           id="g4373" /><g
           style="fill:#4e2e5d;fill-opacity:1;stroke:none"
           id="g4375" /><g
           style="fill:#4e2e5d;fill-opacity:1;stroke:none"
           id="g4377" /></g><g
         transform="matrix(0.56400091,0,0,0.56400091,255.19301,382.48903)"
         id="g4379"
         style="fill:#4e2e5d;fill-opacity:1;stroke:none"><rect
           style="opacity:1;fill:#4e2e5d;fill-opacity:1;stroke:none;stroke-width:1.79999995;stroke-linecap:butt;stroke-linejoin:round;stroke-miterlimit:4;stroke-dasharray:none;stroke-dashoffset:0;stroke-opacity:1"
           id="rect4381"
           width="23.571428"
           height="5.3571429"
           x="126.638"
           y="342.59247"
           ry="2.6785715"
           transform="matrix(0.9559762,-0.29344422,0.29344422,0.9559762,0,0)" /><rect
           transform="matrix(0.9559762,-0.29344422,0.29344422,0.9559762,0,0)"
           ry="2.6785715"
           y="333.97775"
           x="126.11234"
           height="5.3571429"
           width="23.571428"
           id="rect4383"
           style="opacity:1;fill:#4e2e5d;fill-opacity:1;stroke:none;stroke-width:1.79999995;stroke-linecap:butt;stroke-linejoin:round;stroke-miterlimit:4;stroke-dasharray:none;stroke-dashoffset:0;stroke-opacity:1" /><rect
           style="opacity:1;fill:#4e2e5d;fill-opacity:1;stroke:none;stroke-width:1.79999995;stroke-linecap:butt;stroke-linejoin:round;stroke-miterlimit:4;stroke-dasharray:none;stroke-dashoffset:0;stroke-opacity:1"
           id="rect4385"
           width="23.571428"
           height="5.3571429"
           x="130.83997"
           y="351.27899"
           ry="2.6785715"
           transform="matrix(0.9559762,-0.29344422,0.29344422,0.9559762,0,0)" /></g><g
         transform="matrix(0.56400091,0,0,0.56400091,255.87604,382.44731)"
         id="g4387"
         style="fill:#4e2e5d;fill-opacity:1;stroke:none"><rect
           transform="matrix(-0.9559762,-0.29344422,-0.29344422,0.9559762,0,0)"
           ry="2.6785715"
           y="185.62614"
           x="-385.58408"
           height="5.3571429"
           width="23.571428"
           id="rect4389"
           style="opacity:1;fill:#4e2e5d;fill-opacity:1;stroke:none;stroke-width:1.79999995;stroke-linecap:butt;stroke-linejoin:round;stroke-miterlimit:4;stroke-dasharray:none;stroke-dashoffset:0;stroke-opacity:1" /><rect
           style="opacity:1;fill:#4e2e5d;fill-opacity:1;stroke:none;stroke-width:1.79999995;stroke-linecap:butt;stroke-linejoin:round;stroke-miterlimit:4;stroke-dasharray:none;stroke-dashoffset:0;stroke-opacity:1"
           id="rect4392"
           width="23.571428"
           height="5.3571429"
           x="-386.10974"
           y="177.01143"
           ry="2.6785715"
           transform="matrix(-0.9559762,-0.29344422,-0.29344422,0.9559762,0,0)" /><rect
           transform="matrix(-0.9559762,-0.29344422,-0.29344422,0.9559762,0,0)"
           ry="2.6785715"
           y="194.31267"
           x="-381.38211"
           height="5.3571429"
           width="23.571428"
           id="rect4394"
           style="opacity:1;fill:#4e2e5d;fill-opacity:1;stroke:none;stroke-width:1.79999995;stroke-linecap:butt;stroke-linejoin:round;stroke-miterlimit:4;stroke-dasharray:none;stroke-dashoffset:0;stroke-opacity:1" /></g></g><ellipse
       style="opacity:1;fill:#4e2e5d;fill-opacity:1;stroke:none;stroke-width:2.07588863;stroke-linecap:round;stroke-linejoin:round;stroke-miterlimit:4;stroke-dasharray:none;stroke-dashoffset:0;stroke-opacity:1"
       id="ellipse4396"
       cx="-384.10275"
       cy="940.49756"
       rx="9.9918575"
       ry="1.2107415"
       inkscape:export-xdpi="238.67"
       inkscape:export-ydpi="238.67" /><rect
       style="opacity:1;fill:#ffffff;fill-opacity:1;stroke:none;stroke-width:1;stroke-linecap:round;stroke-linejoin:round;stroke-miterlimit:4;stroke-dasharray:none;stroke-dashoffset:0;stroke-opacity:1"
       id="rect4398"
       width="15.143646"
       height="24.717623"
       x="-806.46991"
       y="601.18707"
       ry="7.5599113"
       transform="matrix(0.86670579,-0.49881968,0.50118125,0.86534233,0,0)"
       inkscape:export-xdpi="238.67"
       inkscape:export-ydpi="238.67" /><path
       style="fill:#a35bb4;fill-opacity:1;fill-rule:evenodd;stroke:#a35bb4;stroke-width:1;stroke-linecap:round;stroke-linejoin:round;stroke-miterlimit:4;stroke-dasharray:none;stroke-opacity:1"
       d="m -389.64584,921.20426 2.60538,4.51265"
       id="path4400"
       inkscape:connector-curvature="0"
       inkscape:export-xdpi="238.67"
       inkscape:export-ydpi="238.67" /><path
       style="fill:none;fill-rule:evenodd;stroke:#ffffff;stroke-width:2;stroke-linecap:round;stroke-linejoin:round;stroke-miterlimit:4;stroke-dasharray:none;stroke-opacity:1"
       d="m -431.10183,917.72505 c 7.0729,19.6759 36.53963,-10.43359 40.35164,1.52221"
       id="path4402"
       inkscape:connector-curvature="0"
       sodipodi:nodetypes="cc"
       inkscape:export-xdpi="238.67"
       inkscape:export-ydpi="238.67" /><circle
       style="opacity:1;fill:#a35bb4;fill-opacity:1;stroke:#a35bb4;stroke-width:0.92186517;stroke-linecap:round;stroke-linejoin:round;stroke-miterlimit:4;stroke-dasharray:none;stroke-dashoffset:0;stroke-opacity:1"
       id="circle4404"
       cx="-432.22601"
       cy="907.02167"
       r="1.2804335"
       inkscape:export-xdpi="238.67"
       inkscape:export-ydpi="238.67" /><rect
       style="opacity:1;fill:#a35bb4;fill-opacity:1;stroke:#a35bb4;stroke-width:2.11378312;stroke-linecap:round;stroke-linejoin:round;stroke-miterlimit:4;stroke-dasharray:none;stroke-dashoffset:0;stroke-opacity:1"
       id="rect4406"
       width="6.7165737"
       height="1.3692169"
       x="-443.21082"
       y="906.33704"
       ry="0.68460846"
       inkscape:export-xdpi="238.67"
       inkscape:export-ydpi="238.67" /></g><g
     transform="matrix(0.54913787,0,0,0.54913787,146.99096,-460.37974)"
     style="font-style:normal;font-variant:normal;font-weight:bold;font-stretch:normal;font-size:33.90631485px;line-height:80.00000119%;font-family:Nunito;-inkscape-font-specification:'Nunito, Bold';text-align:center;letter-spacing:0px;word-spacing:0px;writing-mode:lr-tb;text-anchor:middle;fill:#573560;fill-opacity:1;stroke:none;stroke-width:1px;stroke-linecap:butt;stroke-linejoin:miter;stroke-opacity:1"
     id="text4412"
     inkscape:export-xdpi="61.415577"
     inkscape:export-ydpi="61.415577"><path
       inkscape:connector-curvature="0"
       d="m -187.92785,879.16032 q 0.9768,0 1.6887,-0.67878 0.7119,-0.67879 0.7119,-1.78803 l 0,-18.95641 q 0,-1.10924 -0.7119,-1.78803 -0.7119,-0.67879 -1.67214,-0.67879 -0.96024,0 -1.67214,0.67879 -0.69534,0.67879 -0.69534,1.78803 l 0,18.95641 q 0,1.10924 0.69534,1.78803 0.69535,0.67878 1.65558,0.67878 z"
       style="fill:#ffffff;fill-opacity:1"
       id="path4553" /><path
       inkscape:connector-curvature="0"
       d="m -178.29236,879.17688 q 0.91057,0 1.49002,-0.59601 0.59601,-0.61256 0.59601,-1.68869 l 0,-7.00311 q 0,-2.10259 1.20858,-3.4105 1.20857,-1.30791 2.86416,-1.30791 1.37413,0 2.25159,0.91057 0.89401,0.89401 0.89401,2.59926 l 0,8.21169 q 0,1.07613 0.57945,1.68869 0.57946,0.59601 1.45692,0.59601 0.92712,0 1.52313,-0.59601 0.59601,-0.61256 0.59601,-1.68869 l 0,-8.19513 q 0,-1.58936 -0.48012,-2.83105 -0.48012,-1.24168 -1.30791,-1.9867 -0.82779,-0.76156 -1.88736,-1.14235 -1.04302,-0.39734 -2.23504,-0.39734 -1.93703,0 -3.34427,0.72846 -1.39069,0.72846 -2.11915,2.1357 l 0,-0.57945 q 0,-0.9768 -0.57945,-1.50658 -0.57945,-0.54635 -1.47347,-0.54635 -0.91057,0 -1.50658,0.54635 -0.59601,0.54634 -0.59601,1.53969 l 0,12.23475 q 0,1.07613 0.57946,1.68869 0.57945,0.59601 1.49002,0.59601 z"
       style="fill:#ffffff;fill-opacity:1"
       id="path4555" /><path
       inkscape:connector-curvature="0"
       d="m -157.08436,879.17688 q 0.91057,0 1.49003,-0.59601 0.59601,-0.61256 0.59601,-1.7218 l 0,-11.5063 2.20192,0 q 0.72846,0 1.10924,-0.36423 0.38078,-0.36422 0.38078,-0.97679 0,-0.57945 -0.38078,-0.96024 -0.38078,-0.38078 -1.05957,-0.38078 l -2.25159,0 0,-1.20858 q 0,-1.37413 0.23178,-2.06947 0.23178,-0.69535 0.64568,-0.89402 0.41389,-0.19867 1.24168,-0.19867 l 1.32447,0 q 0.66223,0 1.0099,-0.447 0.36423,-0.46357 0.36423,-1.10924 0,-0.66224 -0.38078,-1.15891 -0.36423,-0.49668 -0.99335,-0.49668 l -2.03637,0 q -5.57931,0 -5.57931,5.92699 l 0,1.65558 -1.67214,0 q -0.7119,0 -1.07612,0.39734 -0.36423,0.38078 -0.36423,0.94368 0,0.62912 0.38078,0.97679 0.38078,0.34768 1.10924,0.36423 l 1.62247,0 0,11.5063 q 0,1.09268 0.59601,1.70524 0.59601,0.61257 1.49002,0.61257 z"
       style="fill:#ffffff;fill-opacity:1"
       id="path4557" /><path
       inkscape:connector-curvature="0"
       d="m -141.15766,876.5445 q -2.1357,0 -3.32772,-1.49002 -1.19202,-1.49002 -1.19202,-4.17206 0,-2.71516 1.17546,-4.20518 1.19202,-1.50658 3.34428,-1.50658 2.15226,0 3.34427,1.50658 1.19202,1.50658 1.19202,4.20518 0,2.68204 -1.19202,4.17206 -1.19201,1.49002 -3.34427,1.49002 z m 0,2.83105 q 1.75492,0 3.21183,-0.48012 1.45691,-0.48012 2.45026,-1.2748 1.0099,-0.81123 1.68869,-1.90392 0.69535,-1.10924 1.00991,-2.31781 0.33111,-1.20858 0.33111,-2.51648 0,-1.37414 -0.34767,-2.63238 -0.33111,-1.25824 -1.04302,-2.33437 -0.7119,-1.09268 -1.7218,-1.87081 -1.0099,-0.79468 -2.45026,-1.24168 -1.4238,-0.46357 -3.12905,-0.46357 -1.73836,0 -3.19527,0.48012 -1.44036,0.46356 -2.45026,1.2748 -0.99335,0.81123 -1.6887,1.90392 -0.69534,1.09268 -1.02646,2.33437 -0.31456,1.22513 -0.31456,2.5496 0,1.67213 0.52979,3.16216 0.52978,1.49002 1.53969,2.69859 1.02646,1.20858 2.73171,1.92048 1.70525,0.7119 3.87406,0.7119 z"
       style="fill:#ffffff;fill-opacity:1"
       id="path4559" /><path
       inkscape:connector-curvature="0"
       d="m -128.90636,871.9751 6.63889,0 q 0.72845,0 1.22513,-0.46356 0.49667,-0.46357 0.49667,-1.15891 0,-0.7119 -0.48012,-1.15891 -0.48012,-0.46356 -1.24168,-0.46356 l -6.55611,0 q -0.76156,0 -1.24168,0.46356 -0.48012,0.44701 -0.48012,1.15891 0,0.69534 0.46356,1.15891 0.48012,0.46356 1.17546,0.46356 z"
       style="fill:#ffffff;fill-opacity:1"
       id="path4561" /><path
       inkscape:connector-curvature="0"
       d="m -106.75467,879.60733 q 4.17206,0 7.06933,-1.93703 0.927126,-0.64568 0.927126,-1.67214 0,-0.72845 -0.480119,-1.29135 -0.463562,-0.5629 -1.142347,-0.5629 -0.34768,0 -0.69535,0.18212 -2.64893,1.44035 -4.93363,1.44035 -3.44361,0 -5.28131,-2.23503 -1.82114,-2.2516 -1.82114,-6.39055 0,-4.35418 1.82114,-6.50644 1.82114,-2.15225 5.18197,-2.15225 0.64568,0 1.24169,0.0828 0.59601,0.0828 1.1258,0.24833 0.52978,0.14901 0.8609,0.28145 0.34767,0.11589 0.81123,0.33112 0.48012,0.21522 0.61257,0.26489 0.34767,0.13245 0.62912,0.13245 0.74501,0 1.291353,-0.59601 0.546342,-0.59601 0.546342,-1.35758 0,-1.09268 -1.142355,-1.7218 -3.04627,-1.52314 -6.20843,-1.52314 -2.51648,0 -4.68529,0.89402 -2.15226,0.87745 -3.72506,2.48337 -1.57281,1.60591 -2.46682,3.98995 -0.89401,2.38404 -0.89401,5.26475 0,3.69195 1.47346,6.52299 1.49003,2.81449 4.05618,4.32107 2.58271,1.50658 5.82765,1.50658 z"
       style="fill:#ffffff;fill-opacity:1"
       id="path4563" /><path
       inkscape:connector-curvature="0"
       d="m -90.414079,879.37555 q 1.920475,0 3.095938,-0.77812 1.192019,-0.79468 1.721805,-2.05293 l 0,0.54635 q 0,0.99335 0.579454,1.53969 0.596009,0.54634 1.407244,0.54634 0.811235,0 1.390689,-0.54634 0.579453,-0.54634 0.579453,-1.53969 l 0,-8.41036 q 0,-1.68869 -0.51323,-2.93038 -0.496675,-1.24168 -1.4238,-1.97014 -0.927126,-0.72846 -2.135701,-1.07613 -1.208575,-0.34767 -2.73171,-0.34767 -3.360831,0 -6.109097,1.29135 -0.728456,0.34767 -0.728456,1.15891 0,0.61257 0.39734,1.10924 0.413896,0.48012 0.993349,0.48012 0.281449,0 0.463563,-0.0828 0.01656,0 0.364228,-0.13245 0.347672,-0.149 0.447007,-0.18211 0.09934,-0.0331 0.447007,-0.149 0.347672,-0.13245 0.529786,-0.18212 0.182114,-0.0497 0.529787,-0.149 0.347672,-0.0993 0.596009,-0.13245 0.248337,-0.0497 0.579454,-0.0993 0.331116,-0.0662 0.645677,-0.0828 0.331116,-0.0331 0.645676,-0.0331 1.456912,0 2.185368,0.72845 0.745012,0.7119 0.745012,2.26815 l 0,1.2748 q -1.688693,0 -2.880712,0.0497 -1.192019,0.0331 -2.367482,0.16555 -1.158907,0.13245 -1.920475,0.38079 -0.761568,0.23178 -1.440356,0.61256 -0.678789,0.38079 -1.059572,0.92713 -0.364228,0.54634 -0.579454,1.30791 -0.19867,0.74501 -0.19867,1.73836 0,2.23504 1.605914,3.49328 1.622471,1.24168 4.138955,1.25824 z m 0.51323,-2.61582 q -1.10924,0 -1.788028,-0.59601 -0.662233,-0.61256 -0.662233,-1.77147 0,-0.76157 0.231782,-1.24169 0.231781,-0.49667 0.645677,-0.79468 0.413895,-0.31456 1.274798,-0.447 0.877458,-0.14901 1.837695,-0.19867 0.976794,-0.0497 2.632375,-0.0497 l 0,0.48012 q 0,2.00325 -1.274798,3.31116 -1.274798,1.30791 -2.897268,1.30791 z"
       style="fill:#ffffff;fill-opacity:1"
       id="path4565" /><path
       inkscape:connector-curvature="0"
       d="m -71.192771,879.32588 0.364228,0 q 0.59601,0 0.960238,-0.0165 0.364228,-0.0166 0.860902,-0.0662 0.513231,-0.0331 0.811235,-0.149 0.298005,-0.11589 0.579454,-0.298 0.298005,-0.18212 0.430451,-0.48012 0.132447,-0.29801 0.132447,-0.69535 0,-0.62912 -0.39734,-1.09268 -0.397339,-0.46356 -1.076128,-0.46356 l -0.115891,0 -1.175463,0.0662 -0.182114,0 q -1.009905,0 -1.407244,-0.77812 -0.39734,-0.77813 -0.39734,-2.36749 l 0,-7.53289 2.648931,0 q 0.7119,0 1.076128,-0.36423 0.364228,-0.36423 0.364228,-0.99335 0,-0.64568 -0.364228,-1.02646 -0.364228,-0.39734 -1.059572,-0.39734 l -2.665487,0 0,-4.22173 q 0,-0.96024 -0.413895,-1.44036 -0.39734,-0.48012 -1.125796,-0.48012 -0.91057,0 -1.440356,0.57945 -0.51323,0.5629 -0.612565,1.45692 l -0.496675,4.10584 -1.738361,0 q -0.7119,0 -1.076128,0.38078 -0.364228,0.36423 -0.364228,0.9768 0,0.64567 0.380784,1.04301 0.397339,0.38079 1.10924,0.38079 l 1.605914,0 0,8.55935 q 0,2.56616 1.258242,3.94029 1.274798,1.35758 3.526389,1.37413 z"
       style="fill:#ffffff;fill-opacity:1"
       id="path4567" /></g></svg>